<svg width="52" height="52" viewBox="0 0 52 52" fill="none" xmlns="http://www.w3.org/2000/svg">
<path d="M20.2937 19.5296C16.5664 19.5296 13.5246 22.5714 13.5246 26.2988C13.5246 30.0261 16.5664 33.0679 20.2937 33.0679C24.021 33.0679 27.0628 30.0261 27.0628 26.2988C27.0628 22.5714 24.021 19.5296 20.2937 19.5296ZM40.596 26.2988C40.596 23.4957 40.6214 20.7179 40.464 17.9199C40.3066 14.6699 39.5652 11.7855 37.1886 9.40893C34.807 7.02729 31.9277 6.29096 28.6777 6.13354C25.8746 5.97612 23.0968 6.00151 20.2988 6.00151C17.4957 6.00151 14.7179 5.97612 11.9199 6.13354C8.66987 6.29096 5.7855 7.03237 3.40893 9.40893C1.02729 11.7906 0.290964 14.6699 0.133542 17.9199C-0.0238802 20.723 0.00151046 23.5007 0.00151046 26.2988C0.00151046 29.0968 -0.0238802 31.8796 0.133542 34.6777C0.290964 37.9277 1.03237 40.8121 3.40893 43.1886C5.79057 45.5703 8.66987 46.3066 11.9199 46.464C14.723 46.6214 17.5007 46.596 20.2988 46.596C23.1019 46.596 25.8796 46.6214 28.6777 46.464C31.9277 46.3066 34.8121 45.5652 37.1886 43.1886C39.5703 40.807 40.3066 37.9277 40.464 34.6777C40.6265 31.8796 40.596 29.1019 40.596 26.2988ZM20.2937 36.714C14.53 36.714 9.87846 32.0625 9.87846 26.2988C9.87846 20.5351 14.53 15.8835 20.2937 15.8835C26.0574 15.8835 30.7089 20.5351 30.7089 26.2988C30.7089 32.0625 26.0574 36.714 20.2937 36.714ZM31.1355 17.8894C29.7898 17.8894 28.7031 16.8027 28.7031 15.457C28.7031 14.1113 29.7898 13.0246 31.1355 13.0246C32.4812 13.0246 33.5679 14.1113 33.5679 15.457C33.5683 15.7765 33.5057 16.093 33.3836 16.3883C33.2615 16.6836 33.0823 16.9519 32.8564 17.1779C32.6304 17.4038 32.3621 17.583 32.0668 17.7051C31.7715 17.8272 31.455 17.8898 31.1355 17.8894Z" fill="black"/>
</svg>
